<svg width="281" height="39" viewBox="0 0 281 39" fill="none" xmlns="http://www.w3.org/2000/svg">
<path d="M11.048 38L0.0560001 4.4H8.12L17.672 34.16H13.64L23.624 4.4H30.824L40.424 34.16H36.536L46.328 4.4H53.768L42.776 38H34.424L25.928 11.888H28.136L19.4 38H11.048ZM71.4991 38V32.96L71.0191 31.856V22.832C71.0191 21.232 70.5231 19.984 69.5311 19.088C68.5711 18.192 67.0831 17.744 65.0671 17.744C63.6911 17.744 62.3311 17.968 60.9871 18.416C59.6751 18.832 58.5551 19.408 57.6271 20.144L54.9391 14.912C56.3471 13.92 58.0431 13.152 60.0271 12.608C62.0111 12.064 64.0271 11.792 66.0751 11.792C70.0111 11.792 73.0671 12.72 75.2431 14.576C77.4191 16.432 78.5071 19.328 78.5071 23.264V38H71.4991ZM63.6271 38.384C61.6111 38.384 59.8831 38.048 58.4431 37.376C57.0031 36.672 55.8991 35.728 55.1311 34.544C54.3631 33.36 53.9791 32.032 53.9791 30.56C53.9791 29.024 54.3471 27.68 55.0831 26.528C55.8511 25.376 57.0511 24.48 58.6831 23.84C60.3151 23.168 62.4431 22.832 65.0671 22.832H71.9311V27.2H65.8831C64.1231 27.2 62.9071 27.488 62.2351 28.064C61.5951 28.64 61.2751 29.36 61.2751 30.224C61.2751 31.184 61.6431 31.952 62.3791 32.528C63.1471 33.072 64.1871 33.344 65.4991 33.344C66.7471 33.344 67.8671 33.056 68.8591 32.48C69.8511 31.872 70.5711 30.992 71.0191 29.84L72.1711 33.296C71.6271 34.96 70.6351 36.224 69.1951 37.088C67.7551 37.952 65.8991 38.384 63.6271 38.384ZM93.9721 38.384C91.7641 38.384 89.6361 38.128 87.5881 37.616C85.5721 37.072 83.9721 36.4 82.7881 35.6L85.2841 30.224C86.4681 30.96 87.8601 31.568 89.4601 32.048C91.0921 32.496 92.6921 32.72 94.2601 32.72C95.9881 32.72 97.2041 32.512 97.9081 32.096C98.6441 31.68 99.0121 31.104 99.0121 30.368C99.0121 29.76 98.7241 29.312 98.1481 29.024C97.6041 28.704 96.8681 28.464 95.9401 28.304C95.0121 28.144 93.9881 27.984 92.8681 27.824C91.7801 27.664 90.6761 27.456 89.5561 27.2C88.4361 26.912 87.4121 26.496 86.4841 25.952C85.5561 25.408 84.8041 24.672 84.2281 23.744C83.6841 22.816 83.4121 21.616 83.4121 20.144C83.4121 18.512 83.8761 17.072 84.8041 15.824C85.7641 14.576 87.1401 13.6 88.9321 12.896C90.7241 12.16 92.8681 11.792 95.3641 11.792C97.1241 11.792 98.9161 11.984 100.74 12.368C102.564 12.752 104.084 13.312 105.3 14.048L102.804 19.376C101.556 18.64 100.292 18.144 99.0121 17.888C97.7641 17.6 96.5481 17.456 95.3641 17.456C93.7001 17.456 92.4841 17.68 91.7161 18.128C90.9481 18.576 90.5641 19.152 90.5641 19.856C90.5641 20.496 90.8361 20.976 91.3801 21.296C91.9561 21.616 92.7081 21.872 93.6361 22.064C94.5641 22.256 95.5721 22.432 96.6601 22.592C97.7801 22.72 98.9001 22.928 100.02 23.216C101.14 23.504 102.148 23.92 103.044 24.464C103.972 24.976 104.724 25.696 105.3 26.624C105.876 27.52 106.164 28.704 106.164 30.176C106.164 31.776 105.684 33.2 104.724 34.448C103.764 35.664 102.372 36.624 100.548 37.328C98.7561 38.032 96.5641 38.384 93.9721 38.384ZM121.344 38.384C118.304 38.384 115.936 37.616 114.24 36.08C112.544 34.512 111.696 32.192 111.696 29.12V6.464H119.184V29.024C119.184 30.112 119.472 30.96 120.048 31.568C120.624 32.144 121.408 32.432 122.4 32.432C123.584 32.432 124.592 32.112 125.424 31.472L127.44 36.752C126.672 37.296 125.744 37.712 124.656 38C123.6 38.256 122.496 38.384 121.344 38.384ZM107.712 18.512V12.752H125.616V18.512H107.712ZM143.663 38.384C140.719 38.384 138.127 37.808 135.887 36.656C133.679 35.504 131.967 33.936 130.751 31.952C129.535 29.936 128.927 27.648 128.927 25.088C128.927 22.496 129.519 20.208 130.703 18.224C131.919 16.208 133.567 14.64 135.647 13.52C137.727 12.368 140.079 11.792 142.703 11.792C145.231 11.792 147.503 12.336 149.519 13.424C151.567 14.48 153.183 16.016 154.367 18.032C155.551 20.016 156.143 22.4 156.143 25.184C156.143 25.472 156.127 25.808 156.095 26.192C156.063 26.544 156.031 26.88 155.999 27.2H135.023V22.832H152.063L149.183 24.128C149.183 22.784 148.911 21.616 148.367 20.624C147.823 19.632 147.071 18.864 146.111 18.32C145.151 17.744 144.031 17.456 142.751 17.456C141.471 17.456 140.335 17.744 139.343 18.32C138.383 18.864 137.631 19.648 137.087 20.672C136.543 21.664 136.271 22.848 136.271 24.224V25.376C136.271 26.784 136.575 28.032 137.183 29.12C137.823 30.176 138.703 30.992 139.823 31.568C140.975 32.112 142.319 32.384 143.855 32.384C145.231 32.384 146.431 32.176 147.455 31.76C148.511 31.344 149.471 30.72 150.335 29.888L154.319 34.208C153.135 35.552 151.647 36.592 149.855 37.328C148.063 38.032 145.999 38.384 143.663 38.384Z" fill="#58FF2F"/>
<path d="M168.782 38L157.79 4.4H165.854L175.406 34.16H171.374L181.358 4.4H188.558L198.158 34.16H194.27L204.062 4.4H211.502L200.51 38H192.158L183.662 11.888H185.87L177.134 38H168.782ZM215.737 38V12.176H223.225V38H215.737ZM219.481 8.576C218.105 8.576 216.985 8.176 216.121 7.376C215.257 6.576 214.825 5.584 214.825 4.4C214.825 3.216 215.257 2.224 216.121 1.424C216.985 0.623998 218.105 0.223997 219.481 0.223997C220.857 0.223997 221.977 0.607998 222.841 1.376C223.705 2.112 224.137 3.072 224.137 4.256C224.137 5.504 223.705 6.544 222.841 7.376C222.009 8.176 220.889 8.576 219.481 8.576ZM238.863 38.384C236.655 38.384 234.527 38.128 232.479 37.616C230.463 37.072 228.863 36.4 227.679 35.6L230.175 30.224C231.359 30.96 232.751 31.568 234.351 32.048C235.983 32.496 237.583 32.72 239.151 32.72C240.879 32.72 242.095 32.512 242.799 32.096C243.535 31.68 243.903 31.104 243.903 30.368C243.903 29.76 243.615 29.312 243.039 29.024C242.495 28.704 241.759 28.464 240.831 28.304C239.903 28.144 238.879 27.984 237.759 27.824C236.671 27.664 235.567 27.456 234.447 27.2C233.327 26.912 232.303 26.496 231.375 25.952C230.447 25.408 229.695 24.672 229.119 23.744C228.575 22.816 228.303 21.616 228.303 20.144C228.303 18.512 228.767 17.072 229.695 15.824C230.655 14.576 232.031 13.6 233.823 12.896C235.615 12.16 237.759 11.792 240.255 11.792C242.015 11.792 243.807 11.984 245.631 12.368C247.455 12.752 248.975 13.312 250.191 14.048L247.695 19.376C246.447 18.64 245.183 18.144 243.903 17.888C242.655 17.6 241.439 17.456 240.255 17.456C238.591 17.456 237.375 17.68 236.607 18.128C235.839 18.576 235.455 19.152 235.455 19.856C235.455 20.496 235.727 20.976 236.271 21.296C236.847 21.616 237.599 21.872 238.527 22.064C239.455 22.256 240.463 22.432 241.551 22.592C242.671 22.72 243.791 22.928 244.911 23.216C246.031 23.504 247.039 23.92 247.935 24.464C248.863 24.976 249.615 25.696 250.191 26.624C250.767 27.52 251.055 28.704 251.055 30.176C251.055 31.776 250.575 33.2 249.615 34.448C248.655 35.664 247.263 36.624 245.439 37.328C243.647 38.032 241.455 38.384 238.863 38.384ZM268.491 38.384C265.547 38.384 262.955 37.808 260.715 36.656C258.507 35.504 256.795 33.936 255.579 31.952C254.363 29.936 253.755 27.648 253.755 25.088C253.755 22.496 254.347 20.208 255.531 18.224C256.747 16.208 258.395 14.64 260.475 13.52C262.555 12.368 264.907 11.792 267.531 11.792C270.059 11.792 272.331 12.336 274.347 13.424C276.395 14.48 278.011 16.016 279.195 18.032C280.379 20.016 280.971 22.4 280.971 25.184C280.971 25.472 280.955 25.808 280.923 26.192C280.891 26.544 280.859 26.88 280.827 27.2H259.851V22.832H276.891L274.011 24.128C274.011 22.784 273.739 21.616 273.195 20.624C272.651 19.632 271.899 18.864 270.939 18.32C269.979 17.744 268.859 17.456 267.579 17.456C266.299 17.456 265.163 17.744 264.171 18.32C263.211 18.864 262.459 19.648 261.915 20.672C261.371 21.664 261.099 22.848 261.099 24.224V25.376C261.099 26.784 261.403 28.032 262.011 29.12C262.651 30.176 263.531 30.992 264.651 31.568C265.803 32.112 267.147 32.384 268.683 32.384C270.059 32.384 271.259 32.176 272.283 31.76C273.339 31.344 274.299 30.72 275.163 29.888L279.147 34.208C277.963 35.552 276.475 36.592 274.683 37.328C272.891 38.032 270.827 38.384 268.491 38.384Z" fill="#FEFEFE"/>
</svg>
