<svg width="24" height="24" viewBox="0 0 24 24" fill="none" xmlns="http://www.w3.org/2000/svg">
<path d="M11.9999 2C10.1434 2 8.36294 2.7375 7.05018 4.05025C5.73743 5.36301 4.99993 7.14348 4.99993 9V12.528C5.00008 12.6831 4.96413 12.8362 4.89493 12.975L3.17793 16.408C3.09406 16.5757 3.05445 16.7621 3.06288 16.9494C3.07131 17.1368 3.12748 17.3188 3.22608 17.4783C3.32467 17.6379 3.4624 17.7695 3.6262 17.8608C3.78999 17.9521 3.97441 18 4.16193 18H19.8379C20.0255 18 20.2099 17.9521 20.3737 17.8608C20.5375 17.7695 20.6752 17.6379 20.7738 17.4783C20.8724 17.3188 20.9286 17.1368 20.937 16.9494C20.9454 16.7621 20.9058 16.5757 20.8219 16.408L19.1059 12.975C19.0364 12.8362 19.0001 12.6832 18.9999 12.528V9C18.9999 7.14348 18.2624 5.36301 16.9497 4.05025C15.6369 2.7375 13.8564 2 11.9999 2ZM11.9999 21C11.3793 21.0002 10.7739 20.8079 10.2671 20.4498C9.76025 20.0916 9.37694 19.5851 9.16993 19H14.8299C14.6229 19.5851 14.2396 20.0916 13.7328 20.4498C13.226 20.8079 12.6205 21.0002 11.9999 21Z" fill="#58FF2F"/>
</svg>
